<svg width="14" height="14" viewBox="0 0 14 14" fill="none" xmlns="http://www.w3.org/2000/svg">
<path d="M11.6669 1C12.0204 1 12.3595 1.14046 12.6095 1.39047C12.8595 1.64048 13 1.97957 13 2.33315V10.332C13 10.6856 12.8595 11.0247 12.6095 11.2747C12.3595 11.5247 12.0204 11.6652 11.6669 11.6652C11.3133 11.6652 10.9742 11.5247 10.7242 11.2747C10.4742 11.0247 10.3337 10.6856 10.3337 10.332V5.55136L3.2787 12.609C3.02837 12.8594 2.68885 13 2.33483 13C1.98081 13 1.64129 12.8594 1.39096 12.609C1.14063 12.3587 1 12.0192 1 11.6652C1 11.3112 1.14063 10.9716 1.39096 10.7213L8.44864 3.66629H3.66798C3.3144 3.66629 2.97531 3.52584 2.7253 3.27582C2.47528 3.02581 2.33483 2.68672 2.33483 2.33315C2.33483 1.97957 2.47528 1.64048 2.7253 1.39047C2.97531 1.14046 3.3144 1 3.66798 1H11.6669Z" fill="#434343" stroke="#F2EFE8" stroke-width="2"/>
</svg>
